<?xml version="1.0" encoding="utf-8"?>
<svg width="1920" height="1471" viewBox="0 0 1920 1471" fill="none" xmlns="http://www.w3.org/2000/svg">
  <defs>
    <clipPath id="clip_path_1">
      <rect width="1920" height="1471" />
    </clipPath>
  </defs>
  <g clip-path="url(#clip_path_1)">
    <rect width="1920" height="1471" fill="#000000" fill-rule="evenodd" />
    <g fill="#000000" fill-rule="evenodd" fill-opacity="1" transform="matrix(0.94 0.342 -0.342 0.94 52 -30)">
      <path id="Triangle" d="M100 0L200 200L0 200L100 0Z" />
      <path d="M98.882 2.23608L1 198L0 200L2.23607 200L197.764 200L200 200L199 198L101.118 2.23607L100 0L98.882 2.23608ZM100 4.47215L3.23607 198L196.764 198L100 4.47215Z" fill="#39FF14" fill-rule="evenodd" />
    </g>
    <g fill="#000000" fill-rule="evenodd" fill-opacity="1" transform="matrix(0.017 1 -1 0.017 240 199)">
      <path id="Triangle" d="M100 0L200 200L0 200L100 0Z" />
      <path d="M98.8821 2.23607L100 0L101.118 2.23607L199 198L200 200L197.764 200L2.23607 200L0 200L1 198L98.8821 2.23607ZM3.23607 198L100 4.47214L196.764 198L3.23607 198Z" fill="#39FF14" fill-rule="evenodd" />
    </g>
    <g fill="#000000" fill-rule="evenodd" fill-opacity="1" transform="matrix(-0.375 -0.927 0.927 -0.375 52 618)">
      <path id="Triangle" d="M100 0L200 200L0 200L100 0Z" />
      <path d="M98.8821 2.23608L100 0L101.118 2.23608L199 198L200 200L197.764 200L2.23608 200L0 200L1 198L98.8821 2.23608ZM100 4.47217L3.23608 198L196.764 198L100 4.47217Z" fill="#39FF14" fill-rule="evenodd" />
    </g>
    <g fill="#000000" fill-rule="evenodd" fill-opacity="1" transform="matrix(0.682 -0.731 0.731 0.682 152.923 418)">
      <path id="Triangle" d="M100 0L200 200L0 200L100 0Z" />
      <path d="M98.8821 2.23602L1 198L0 200L2.23608 200L197.764 200L200 200L199 198L101.118 2.23605L100 0L98.8821 2.23602ZM100 4.47211L3.23605 198L196.764 198L100 4.47211Z" fill="#39FF14" fill-rule="evenodd" />
    </g>
    <g fill="#000000" fill-rule="evenodd" fill-opacity="1" transform="matrix(0.292 -0.956 0.956 0.292 376.468 671)">
      <path id="Triangle" d="M100 0L200 200L0 200L100 0Z" />
      <path d="M98.8821 2.23608L1 198L0 200L2.23608 200L197.764 200L200 200L199 198L101.118 2.23608L100 0L98.8821 2.23608ZM100 4.47211L3.23608 198L196.764 198L100 4.47211Z" fill="#39FF14" fill-rule="evenodd" />
    </g>
    <g fill="#000000" fill-rule="evenodd" fill-opacity="1" transform="matrix(0.602 -0.799 0.799 0.602 626 554)">
      <path id="Triangle" d="M100 0L200 200L0 200L100 0Z" />
      <path d="M98.8822 2.23615L1 198L0 200L2.23608 200L197.764 200L200 200L199 198L101.118 2.23615L100 0L98.8822 2.23615ZM100 4.47217L3.23608 198L196.764 198L100 4.47217Z" fill="#39FF14" fill-rule="evenodd" />
    </g>
    <g fill="#000000" fill-rule="evenodd" fill-opacity="1" transform="matrix(-0.999 0.052 -0.052 -0.999 1120 730)">
      <path id="Triangle" d="M100 0L200 200L0 200L100 0Z" />
      <path d="M98.8822 2.23608L100 0L101.118 2.23602L199 198L200 200L197.764 200L2.23608 200L0 200L1 198L98.8822 2.23608ZM3.23608 198L100 4.47211L196.764 198L3.23608 198Z" fill="#39FF14" fill-rule="evenodd" />
    </g>
    <g fill="#000000" fill-rule="evenodd" fill-opacity="1" transform="matrix(0.982 0.191 -0.191 0.982 1120 474)">
      <path id="Triangle" d="M100 0L200 200L0 200L100 0Z" />
      <path d="M98.8822 2.23605L1.00012 198L0 200L2.23608 200L197.765 200L200 200L199 198L101.118 2.23608L100 0L98.8822 2.23605ZM100 4.47214L3.23621 198L196.764 198L100 4.47214Z" fill="#39FF14" fill-rule="evenodd" />
    </g>
    <g fill="#000000" fill-rule="evenodd" fill-opacity="1" transform="matrix(-0.602 0.799 -0.799 -0.602 1585.033 618)">
      <path id="Triangle" d="M100 0L200.001 200.001L0 200.001L100 0Z" />
      <path d="M98.8822 2.23596L100 0L101.118 2.23621L199 198.001L200.001 200.001L197.765 200.001L2.23608 200.001L0 200.001L1 198.001L98.8822 2.23596ZM100 4.47229L196.765 198.001L3.23608 198.001L100 4.47229Z" fill="#39FF14" fill-rule="evenodd" />
    </g>
    <g fill="#000000" fill-rule="evenodd" fill-opacity="1" transform="matrix(0.883 -0.469 0.469 0.883 780 695)">
      <path id="Triangle" d="M100 0L200 200L0 200L100 0Z" />
      <path d="M98.8823 2.23621L1.00012 198L0 200L2.23621 200L197.764 200L200 200L199 198L101.118 2.23608L100 0L98.8823 2.23621ZM100 4.47217L3.23608 198L196.764 198L100 4.47217Z" fill="#39FF14" fill-rule="evenodd" />
    </g>
    <g fill="#000000" fill-rule="evenodd" fill-opacity="1" transform="matrix(0.875 -0.485 0.485 0.875 376.393 354)">
      <path id="Triangle" d="M100 0L200 200L0 200L100 0Z" />
      <path d="M98.8821 2.23608L0.999969 198L0 200L2.23605 200L197.764 200L200 200L199 198L101.118 2.23608L100 0L98.8821 2.23608ZM100 4.47217L3.23605 198L196.764 198L100 4.47217Z" fill="#39FF14" fill-rule="evenodd" />
    </g>
    <g fill="#000000" fill-rule="evenodd" fill-opacity="1" transform="matrix(0.875 -0.485 0.485 0.875 591.8 48)">
      <path id="Triangle" d="M100 0L200 200L0 200L100 0Z" />
      <path d="M98.8821 2.23608L1.00006 198L0 200L2.23608 200L197.764 200L200 200L199 198L101.118 2.23605L100 0L98.8821 2.23608ZM100 4.47208L3.23602 198L196.764 198L100 4.47208Z" fill="#39FF14" fill-rule="evenodd" />
    </g>
    <g fill="#000000" fill-rule="evenodd" fill-opacity="1" transform="matrix(-0.156 -0.988 0.988 -0.156 767.5 331)">
      <path id="Triangle" d="M100 0L200 200L0 200L100 0Z" />
      <path d="M98.8822 2.23615L1.00006 198L0 200L2.23608 200L197.764 200L200 200L199 198L101.118 2.23608L100 0L98.8822 2.23615ZM100 4.47217L3.23608 198L196.764 198L100 4.47217Z" fill="#39FF14" fill-rule="evenodd" />
    </g>
    <g fill="#000000" fill-rule="evenodd" fill-opacity="1" transform="matrix(0.326 0.946 -0.946 0.326 1155.4 89)">
      <path id="Triangle" d="M100 0L200 200.001L0 200.001L100 0Z" />
      <path d="M98.8822 2.23608L1 198.001L0 200.001L2.23608 200.001L197.764 200.001L200 200.001L199 198.001L101.118 2.23608L100 0L98.8822 2.23608ZM100 4.47217L196.764 198.001L3.23608 198.001L100 4.47217Z" fill="#39FF14" fill-rule="evenodd" />
    </g>
    <g fill="#000000" fill-rule="evenodd" fill-opacity="1" transform="matrix(-0.375 -0.927 0.927 -0.375 996.6 199)">
      <path id="Triangle" d="M100 0L200 200L0 200L100 0Z" />
      <path d="M98.8822 2.23608L100 0L101.118 2.23608L199 198.001L200 200L197.764 200L2.23608 200L0 200L1 198L98.8822 2.23608ZM100 4.47211L3.23608 198L196.764 198L100 4.47211Z" fill="#39FF14" fill-rule="evenodd" />
    </g>
    <g fill="#000000" fill-rule="evenodd" fill-opacity="1" transform="matrix(-0.156 -0.988 0.988 -0.156 813.7 542)">
      <path id="Triangle" d="M100 0L200 200L0 200L100 0Z" />
      <path d="M98.8821 2.23615L1.00006 198L0 200L2.23608 200L197.764 200L200 200L199 198L101.118 2.23608L100 0L98.8821 2.23615ZM100 4.47217L3.23608 198L196.764 198L100 4.47217Z" fill="#39FF14" fill-rule="evenodd" />
    </g>
    <g fill="#000000" fill-rule="evenodd" fill-opacity="1" transform="matrix(-0.438 0.899 -0.899 -0.438 1311.9 378)">
      <path id="Triangle" d="M100 0L200 200L0 200L100 0Z" />
      <path d="M98.8821 2.23621L100 0L101.118 2.23621L199 198L200 200L197.764 200L2.23608 200L0 200L1 198L98.8821 2.23621ZM100 4.47229L3.23608 198L196.764 198L100 4.47229Z" fill="#39FF14" fill-rule="evenodd" />
    </g>
    <g fill="#000000" fill-rule="evenodd" fill-opacity="1" transform="matrix(0.695 -0.719 0.719 0.695 1182.781 396)">
      <path id="Triangle" d="M100 0L200 200L0 200L100 0Z" />
      <path d="M98.8821 2.23596L1.00012 198L0 200L2.23596 200L197.764 200L200 200L199 198L101.118 2.23608L100 0L98.8821 2.23596ZM100 4.47205L3.23596 198L196.764 198L100 4.47205Z" fill="#39FF14" fill-rule="evenodd" />
    </g>
    <g fill="#000000" fill-rule="evenodd" fill-opacity="1" transform="matrix(-0.105 0.995 -0.995 -0.105 898.15 259)">
      <path id="Triangle" d="M100 0L200 200.001L0 200.001L100 0Z" />
      <path d="M98.8822 2.23608L100 0L101.118 2.23615L199 198.001L200 200.001L197.764 200.001L2.23608 200.001L0 200.001L1 198.001L98.8822 2.23608ZM3.23608 198.001L100 4.47217L196.764 198.001L3.23608 198.001Z" fill="#39FF14" fill-rule="evenodd" />
    </g>
    <g fill="#000000" fill-rule="evenodd" fill-opacity="1" transform="matrix(0.358 -0.934 0.934 0.358 -15.859 699)">
      <path id="Triangle" d="M100 0L200 200L0 200L100 0Z" />
      <path d="M98.882 2.23608L1 198L0 200L2.23602 200L197.764 200L200 200L199 198L101.118 2.23602L100 0L98.882 2.23608ZM100 4.47217L3.23602 198L196.764 198L100 4.47217Z" fill="#39FF14" fill-rule="evenodd" />
    </g>
    <g fill="#000000" fill-rule="evenodd" fill-opacity="1" transform="matrix(-0.156 0.988 -0.988 -0.156 227.608 726.353)">
      <path id="Triangle" d="M100 0L200 200L0 200L100 0Z" />
      <path d="M98.8822 2.23608L100 0L101.118 2.23608L199 198L200 200L197.764 200L2.23602 200L0 200L0.999939 198L98.8822 2.23608ZM3.23608 198L100 4.47217L196.764 198L3.23608 198Z" fill="#39FF14" fill-rule="evenodd" />
    </g>
    <g fill="#000000" fill-rule="evenodd" fill-opacity="1" transform="matrix(-0.156 0.988 -0.988 -0.156 491 595)">
      <path id="Triangle" d="M100 0L200 200L0 200L100 0Z" />
      <path d="M98.8822 2.23602L100 0L101.118 2.23602L199 198L200 200L197.764 200L2.23605 200L0 200L0.999939 198L98.8822 2.23602ZM3.23605 198L100 4.47205L196.764 198L3.23605 198Z" fill="#39FF14" fill-rule="evenodd" />
    </g>
    <g fill="#000000" fill-rule="evenodd" fill-opacity="1" transform="matrix(0.438 -0.899 0.899 0.438 294 855)">
      <path id="Triangle" d="M100 0L200 200L0 200L100 0Z" />
      <path d="M98.8822 2.23608L0.999939 198.001L0 200L2.23608 200.001L197.764 200L200 200L199.001 198L101.118 2.23608L100 0L98.8822 2.23608ZM100 4.47217L3.23608 198L196.764 198L100 4.47217Z" fill="#39FF14" fill-rule="evenodd" />
    </g>
    <g fill="#000000" fill-rule="evenodd" fill-opacity="1" transform="matrix(0.438 -0.899 0.899 0.438 578 942)">
      <path id="Triangle" d="M100 0L200.001 200L0 200L100 0Z" />
      <path d="M98.8822 2.23608L1 198L0 200L2.23608 200L197.764 200L200.001 200L199.001 198L101.118 2.23596L100 0L98.8822 2.23608ZM100 4.47205L3.23602 198L196.764 198L100 4.47205Z" fill="#39FF14" fill-rule="evenodd" />
    </g>
    <g fill="#000000" fill-rule="evenodd" fill-opacity="1" transform="matrix(-0.574 -0.819 0.819 -0.574 814.159 1190)">
      <path id="Triangle" d="M100 0L200 200.001L0 200.001L100 0Z" />
      <path d="M98.8822 2.23608L100 0L101.118 2.23615L199.001 198.001L200 200.001L197.765 200.001L2.23608 200.001L0 200.001L1 198.001L98.8822 2.23608ZM100 4.47217L3.23608 198.001L196.765 198.001L100 4.47217Z" fill="#39FF14" fill-rule="evenodd" />
    </g>
    <g fill="#000000" fill-rule="evenodd" fill-opacity="1" transform="matrix(0.122 0.993 -0.993 0.122 1146.923 824)">
      <path id="Triangle" d="M100 0L200.001 200.001L0 200.001L100 0Z" />
      <path d="M98.8824 2.23596L100 0L101.118 2.23596L199.001 198.001L200.001 200.001L197.765 200.001L2.23608 200.001L0 200.001L1.00006 198.001L98.8824 2.23596ZM3.23608 198.001L100 4.47205L196.765 198.001L3.23608 198.001Z" fill="#39FF14" fill-rule="evenodd" />
    </g>
    <g fill="#000000" fill-rule="evenodd" fill-opacity="1" transform="matrix(0.342 -0.94 0.94 0.342 1027.8 843)">
      <path id="Triangle" d="M100 0L200.001 200.001L0 200.001L100 0Z" />
      <path d="M98.8824 2.23608L1 198.001L0 200.001L2.23608 200.001L197.765 200.001L200.001 200.001L199.001 198.001L101.118 2.23596L100 0L98.8824 2.23608ZM100 4.47205L3.23608 198.001L196.765 198.001L100 4.47205Z" fill="#39FF14" fill-rule="evenodd" />
    </g>
    <g fill="#000000" fill-rule="evenodd" fill-opacity="1" transform="matrix(-0.602 0.799 -0.799 -0.602 1446.1 229)">
      <path id="Triangle" d="M100 0L200.001 200.001L0 200.001L100 0Z" />
      <path d="M98.8823 2.23596L100 0L101.118 2.23596L199.001 198.001L200.001 200.001L197.765 200.001L2.23596 200.001L0 200.001L1 198.001L98.8823 2.23596ZM100 4.47217L196.765 198.001L3.23608 198.001L100 4.47217Z" fill="#39FF14" fill-rule="evenodd" />
    </g>
    <g fill="#000000" fill-rule="evenodd" fill-opacity="1" transform="matrix(-0.669 -0.743 0.743 -0.669 537.315 1142)">
      <path id="Triangle" d="M100 0L200.001 200.001L0 200.001L100 0Z" />
      <path d="M98.8823 2.23608L100 0L101.118 2.23608L199.001 198.001L200.001 200.001L197.765 200.001L2.23608 200.001L0 200.001L1 198.001L98.8823 2.23608ZM100 4.47217L3.23596 198.001L196.765 198.001L100 4.47217Z" fill="#39FF14" fill-rule="evenodd" />
    </g>
    <g fill="#000000" fill-rule="evenodd" fill-opacity="1" transform="matrix(0.956 -0.292 0.292 0.956 561.85 632)">
      <path id="Triangle" d="M100 0L200 200.001L0 200.001L100 0Z" />
      <path d="M98.8823 2.23602L1 198.001L0 200.001L2.23596 200.001L197.764 200.001L200 200.001L199.001 198.001L101.118 2.23602L100 0L98.8823 2.23602ZM100 4.47211L3.23602 198.001L196.764 198.001L100 4.47211Z" fill="#39FF14" fill-rule="evenodd" />
    </g>
    <g fill="#000000" fill-rule="evenodd" fill-opacity="1" transform="matrix(0.899 -0.438 0.438 0.899 141 809)">
      <path id="Triangle" d="M100 0L200.001 200.001L0 200.001L100 0Z" />
      <path d="M98.8822 2.23608L1.00002 198.001L0 200.001L2.23608 200.001L197.765 200L200.001 200.001L199.001 198.001L101.118 2.23602L100 0L98.8822 2.23608ZM100 4.47211L3.23608 198.001L196.765 198L100 4.47211Z" fill="#39FF14" fill-rule="evenodd" />
    </g>
    <g fill="#000000" fill-rule="evenodd" fill-opacity="1" transform="matrix(-0.485 -0.875 0.875 -0.485 85 1163)">
      <path id="Triangle" d="M100 0L200.001 200.001L0 200.001L100 0Z" />
      <path d="M98.8822 2.23608L100 0L101.118 2.23608L199.001 198.001L200.001 200.001L197.765 200.001L2.23596 200.001L0 200.001L1 198.001L98.8822 2.23608ZM100 4.47217L3.23608 198.001L196.765 198.001L100 4.47217Z" fill="#39FF14" fill-rule="evenodd" />
    </g>
    <g fill="#000000" fill-rule="evenodd" fill-opacity="1" transform="matrix(-1 0.017 -0.017 -1 436.714 1191)">
      <path id="Triangle" d="M100 0L200.001 200.001L0 200.001L100 0Z" />
      <path d="M98.8823 2.23608L100 0L101.118 2.23608L199.001 198.001L200.001 200.001L197.765 200.001L2.23611 200.001L0 200.001L1 198.001L98.8823 2.23608ZM3.23608 198.001L100 4.47217L196.765 198.001L3.23608 198.001Z" fill="#39FF14" fill-rule="evenodd" />
    </g>
    <g fill="#000000" fill-rule="evenodd" fill-opacity="1" transform="matrix(0.921 0.391 -0.391 0.921 461.292 1024)">
      <path id="Triangle" d="M100 0L200.001 200.001L0 200.001L100 0Z" />
      <path d="M98.8823 2.23608L1 198.001L0 200.001L2.23608 200.001L197.765 200.001L200.001 200.001L199.001 198.001L101.118 2.23608L100 0L98.8823 2.23608ZM100 4.47217L3.23615 198.001L196.765 198.001L100 4.47217Z" fill="#39FF14" fill-rule="evenodd" />
    </g>
    <g fill="#000000" fill-rule="evenodd" fill-opacity="1" transform="matrix(0.985 -0.174 0.174 0.985 584.031 1050.008)">
      <path id="Triangle" d="M100 0L200.001 200.001L0 200.001L100 0Z" />
      <path d="M98.8823 2.23621L1 198.001L0 200.001L2.23602 200.001L197.765 200.001L200.001 200.001L199.001 198.001L101.118 2.23608L100 0L98.8823 2.23621ZM100 4.47217L3.23602 198.001L196.765 198.001L100 4.47217Z" fill="#39FF14" fill-rule="evenodd" />
    </g>
    <g fill="#000000" fill-rule="evenodd" fill-opacity="1" transform="matrix(0.731 -0.682 0.682 0.731 176.933 1267)">
      <path id="Triangle" d="M100 0L200.001 200.001L0 200.001L100 0Z" />
      <path d="M98.8824 2.23608L1 198.001L0 200.001L2.23608 200.001L197.765 200.001L200.001 200.001L199.001 198.001L101.119 2.23596L100 0L98.8824 2.23608ZM100 4.47217L3.23602 198.001L196.765 198.001L100 4.47217Z" fill="#39FF14" fill-rule="evenodd" />
    </g>
    <g fill="#000000" fill-rule="evenodd" fill-opacity="1" transform="matrix(0.707 0.707 -0.707 0.707 542.335 1229.513)">
      <path id="Triangle" d="M100.001 0L200.001 200.001L0 200.001L100.001 0Z" />
      <path d="M98.8826 2.23596L1 198.001L0 200.001L2.23608 200.001L197.765 200.001L200.001 200.001L199.001 198.001L101.119 2.23596L100.001 0L98.8826 2.23596ZM100.001 4.47205L196.765 198.001L3.23608 198.001L100.001 4.47205Z" fill="#39FF14" fill-rule="evenodd" />
    </g>
    <g fill="#000000" fill-rule="evenodd" fill-opacity="1" transform="matrix(-0.602 0.799 -0.799 -0.602 894.5 1360)">
      <path id="Triangle" d="M100.001 0L200.001 200.001L0 200.001L100.001 0Z" />
      <path d="M98.8827 2.23608L100.001 0L101.119 2.23596L199.001 198.001L200.001 200.001L197.765 200.001L2.23608 200.001L0 200.001L1.00006 198.001L98.8827 2.23608ZM100.001 4.47217L196.765 198.001L3.23608 198.001L100.001 4.47217Z" fill="#39FF14" fill-rule="evenodd" />
    </g>
    <g fill="#000000" fill-rule="evenodd" fill-opacity="1" transform="matrix(0.998 -0.07 0.07 0.998 864 1249)">
      <path id="Triangle" d="M100.001 0L200.002 200.001L0 200.002L100.001 0Z" />
      <path d="M98.8827 2.23608L1 198.002L0 200.002L2.23608 200.002L197.766 200.002L200.002 200.001L199.002 198.002L101.119 2.23608L100.001 0L98.8827 2.23608ZM100.001 4.47217L3.23608 198.002L196.765 198.001L100.001 4.47217Z" fill="#39FF14" fill-rule="evenodd" />
    </g>
    <g fill="#000000" fill-rule="evenodd" fill-opacity="1" transform="matrix(-0.982 -0.191 0.191 -0.982 1243.8 1473)">
      <path id="Triangle" d="M100.001 0L200.002 200.002L0 200.002L100.001 0Z" />
      <path d="M98.8828 2.23596L100.001 0L101.119 2.23608L199.002 198.002L200.002 200.002L197.766 200.002L2.23621 200.002L0 200.002L1.00012 198.002L98.8828 2.23596ZM3.23621 198.002L100.001 4.47217L196.766 198.002L3.23621 198.002Z" fill="#39FF14" fill-rule="evenodd" />
    </g>
    <g fill="#000000" fill-rule="evenodd" fill-opacity="1" transform="matrix(-0.643 -0.766 0.766 -0.643 1248.492 1302)">
      <path id="Triangle" d="M100.001 0L200.002 200.002L0 200.002L100.001 0Z" />
      <path d="M98.8827 2.23602L100.001 0L101.119 2.23608L199.002 198.002L200.002 200.002L197.766 200.002L2.23621 200.002L0 200.002L0.999878 198.002L98.8827 2.23602ZM100.001 4.47223L3.23608 198.002L196.766 198.002L100.001 4.47223Z" fill="#39FF14" fill-rule="evenodd" />
    </g>
    <g fill="#000000" fill-rule="evenodd" fill-opacity="1" transform="matrix(0.951 0.309 -0.309 0.951 1284.212 1271)">
      <path id="Triangle" d="M100.001 0L200.002 200.002L0 200.002L100.001 0Z" />
      <path d="M98.8828 2.23608L1 198.002L0 200.002L2.23608 200.002L197.766 200.002L200.002 200.002L199.002 198.002L101.119 2.23608L100.001 0L98.8828 2.23608ZM100.001 4.47217L3.23608 198.002L196.766 198.002L100.001 4.47217Z" fill="#39FF14" fill-rule="evenodd" />
    </g>
    <g fill="#000000" fill-rule="evenodd" fill-opacity="1" transform="matrix(-0.934 -0.358 0.358 -0.934 929.355 1369)">
      <path id="Triangle" d="M100.001 0L200.002 200.001L0 200.001L100.001 0Z" />
      <path d="M98.8827 2.23596L100.001 0L101.119 2.23596L199.002 198.001L200.002 200.001L197.766 200.001L2.23608 200.001L0 200.001L1 198.001L98.8827 2.23596ZM100.001 4.47205L196.766 198.001L3.23608 198.001L100.001 4.47205Z" fill="#39FF14" fill-rule="evenodd" />
    </g>
    <g fill="#000000" fill-rule="evenodd" fill-opacity="1" transform="matrix(-0.966 -0.259 0.259 -0.966 1133.19 1288.279)">
      <path id="Triangle" d="M100.001 0L200.002 200.002L0 200.002L100.001 0Z" />
      <path d="M98.8829 2.23608L100.001 0L101.119 2.23596L199.002 198.002L200.002 200.002L197.766 200.002L2.23608 200.002L0 200.002L1 198.002L98.8829 2.23608ZM100.001 4.47205L196.766 198.002L3.23608 198.002L100.001 4.47205Z" fill="#39FF14" fill-rule="evenodd" />
    </g>
    <g fill="#000000" fill-rule="evenodd" fill-opacity="1" transform="matrix(-0.358 -0.934 0.934 -0.358 1216.269 1087)">
      <path id="Triangle" d="M100.001 0L200.002 200.002L0 200.002L100.001 0Z" />
      <path d="M98.8828 2.23596L100.001 0L101.119 2.23602L199.002 198.002L200.002 200.002L197.766 200.002L2.23608 200.002L0 200.002L1 198.002L98.8828 2.23596ZM100.001 4.47205L3.23608 198.002L196.766 198.002L100.001 4.47205Z" fill="#39FF14" fill-rule="evenodd" />
    </g>
    <g fill="#000000" fill-rule="evenodd" fill-opacity="1" transform="matrix(-0.358 -0.934 0.934 -0.358 1366 1370)">
      <path id="Triangle" d="M100.001 0L200.002 200.002L0 200.002L100.001 0Z" />
      <path d="M98.8829 2.23596L100.001 0L101.119 2.23596L199.002 198.002L200.002 200.002L197.766 200.002L2.23596 200.002L0 200.002L0.999878 198.001L98.8829 2.23596ZM100.001 4.47192L3.23608 198.002L196.766 198.001L100.001 4.47192Z" fill="#39FF14" fill-rule="evenodd" />
    </g>
    <g fill="#000000" fill-rule="evenodd" fill-opacity="1" transform="matrix(-0.559 0.829 -0.829 -0.559 1820.347 1174)">
      <path id="Triangle" d="M100.001 0L200.002 200.002L0 200.002L100.001 0Z" />
      <path d="M98.8827 2.23608L100.001 0L101.119 2.23608L199.002 198.002L200.002 200.002L197.766 200.002L2.23596 200.002L0 200.002L0.999878 198.002L98.8827 2.23608ZM100.001 4.47192L196.766 198.002L3.23608 198.002L100.001 4.47192Z" fill="#39FF14" fill-rule="evenodd" />
    </g>
    <g fill="#000000" fill-rule="evenodd" fill-opacity="1" transform="matrix(0.829 -0.559 0.559 0.829 1681 1078)">
      <path id="Triangle" d="M100.001 0L200.002 200.002L0 200.002L100.001 0Z" />
      <path d="M98.8828 2.23608L1 198.002L0 200.002L2.23608 200.002L197.766 200.002L200.002 200.002L199.002 198.002L101.119 2.23608L100.001 0L98.8828 2.23608ZM100.001 4.47217L3.23608 198.002L196.766 198.002L100.001 4.47217Z" fill="#39FF14" fill-rule="evenodd" />
    </g>
    <g fill="#000000" fill-rule="evenodd" fill-opacity="1" transform="matrix(0.07 -0.998 0.998 0.07 1689.24 1412)">
      <path id="Triangle" d="M100.001 0L200.002 200.002L0 200.002L100.001 0Z" />
      <path d="M98.8828 2.23608L1 198.002L0 200.002L2.23596 200.002L197.766 200.002L200.002 200.002L199.002 198.002L101.119 2.23608L100.001 0L98.8828 2.23608ZM100.001 4.47217L3.23608 198.002L196.766 198.002L100.001 4.47217Z" fill="#39FF14" fill-rule="evenodd" />
    </g>
    <g fill="#000000" fill-rule="evenodd" fill-opacity="1" transform="matrix(0.656 -0.755 0.755 0.656 1288.346 788)">
      <path id="Triangle" d="M100.001 0L200.002 200.002L0 200.002L100.001 0Z" />
      <path d="M98.8828 2.23608L1 198.002L0 200.002L2.23608 200.002L197.766 200.002L200.002 200.002L199.002 198.002L101.119 2.23608L100.001 0L98.8828 2.23608ZM100.001 4.47217L3.23608 198.002L196.766 198.002L100.001 4.47217Z" fill="#39FF14" fill-rule="evenodd" />
    </g>
    <g fill="#000000" fill-rule="evenodd" fill-opacity="1" transform="matrix(-0.208 -0.978 0.978 -0.208 401.313 141)">
      <path id="Triangle" d="M100.001 0L200.001 200.001L0 200.001L100.001 0Z" />
      <path d="M98.8825 2.23605L0.999969 198.001L0 200.001L2.23602 200.001L197.765 200.001L200.001 200.001L199.001 198.001L101.119 2.23605L100.001 0L98.8825 2.23605ZM100.001 4.47211L3.23602 198.001L196.765 198.001L100.001 4.47211Z" fill="#39FF14" fill-rule="evenodd" />
    </g>
    <g fill="#000000" fill-rule="evenodd" fill-opacity="1" transform="matrix(-0.602 0.799 -0.799 -0.602 291.315 1206)">
      <path id="Triangle" d="M100 0L200.001 200.001L0 200.001L100 0Z" />
      <path d="M98.8823 2.23608L100 0L101.118 2.23608L199.001 198.001L200.001 200.001L197.765 200.001L2.23602 200.001L0 200.001L0.999939 198.001L98.8823 2.23608ZM100 4.47217L196.765 198.001L3.23608 198.001L100 4.47217Z" fill="#39FF14" fill-rule="evenodd" />
    </g>
    <g fill="#000000" fill-rule="evenodd" fill-opacity="1" transform="matrix(0.899 0.438 -0.438 0.899 296.373 99)">
      <path id="Triangle" d="M108.314 0L216.627 185.952L0 185.952L108.314 0Z" />
      <path d="M107.156 1.9868L1.16495 183.952L0 185.952L2.31451 185.952L214.313 185.952L216.627 185.952L215.462 183.952L109.471 1.9868L108.314 0L107.156 1.9868ZM108.314 3.97359L3.47946 183.952L213.148 183.952L108.314 3.97359Z" fill="#39FF14" fill-rule="evenodd" />
    </g>
    <g fill="#000000" fill-rule="evenodd" fill-opacity="1" transform="matrix(0.485 -0.875 0.875 0.485 393 236)">
      <path id="Triangle" d="M108.314 0L216.628 185.952L0 185.952L108.314 0Z" />
      <path d="M107.156 1.98679L1.16498 183.952L0 185.952L2.31454 185.952L214.313 185.952L216.628 185.952L215.463 183.952L109.471 1.98682L108.314 0L107.156 1.98679ZM108.314 3.97363L3.47949 183.952L213.148 183.952L108.314 3.97363Z" fill="#39FF14" fill-rule="evenodd" />
    </g>
    <g fill="#000000" fill-rule="evenodd" fill-opacity="1" transform="matrix(0.982 -0.191 0.191 0.982 141.039 -23)">
      <path id="Triangle" d="M100 0L200 185.952L0 185.952L100 0Z" />
      <path d="M98.8647 2.11135L1.07553 183.952L0 185.952L2.27086 185.952L197.729 185.952L200 185.952L198.925 183.952L101.136 2.11136L100 0L98.8647 2.11135ZM100 4.22271L3.34641 183.952L196.654 183.952L100 4.22271Z" fill="#39FF14" fill-rule="evenodd" />
    </g>
    <g fill="#000000" fill-rule="evenodd" fill-opacity="1" transform="matrix(0.375 0.927 -0.927 0.375 194.213 1254)">
      <path id="Triangle" d="M100 0L200.001 200.001L0 200.001L100 0Z" />
      <path d="M98.8826 2.23608L1 198.001L0 200.001L197.765 200.001L200.001 200.001L199.001 198.001L101.119 2.23608L100 0L98.8826 2.23608ZM100.001 4.47217L196.765 198.001L3.23608 198.001L100.001 4.47217Z" fill="#39FF14" fill-rule="evenodd" />
    </g>
    <g fill="#000000" fill-rule="evenodd" fill-opacity="1" transform="matrix(-0.927 0.375 -0.375 -0.927 1684.682 1512)">
      <path id="Triangle" d="M100.001 0L200.002 200.002L0 200.002L100.001 0Z" />
      <path d="M98.8831 2.23608L100.001 0L101.119 2.23633L199.002 198.002L200.002 200.002L197.766 200.002L2.23608 200.002L0 200.002L1 198.002L98.8831 2.23608ZM100.001 4.47229L196.766 198.002L3.23608 198.002L100.001 4.47229Z" fill="#39FF14" fill-rule="evenodd" />
    </g>
    <g fill="#000000" fill-rule="evenodd" fill-opacity="1" transform="matrix(0.883 -0.469 0.469 0.883 1585.681 1387)">
      <path id="Triangle" d="M100.001 0L200.002 200.002L0 200.002L100.001 0Z" />
      <path d="M98.8831 2.23608L1 198.002L0 200.002L2.23608 200.002L197.766 200.002L200.002 200.002L199.002 198.002L101.119 2.23608L100.001 0L98.8831 2.23608ZM100.001 4.47217L3.23608 198.002L196.766 198.002L100.001 4.47217Z" fill="#39FF14" fill-rule="evenodd" />
    </g>
    <g fill="#000000" fill-rule="evenodd" fill-opacity="1" transform="matrix(-0.515 -0.857 0.857 -0.515 1459.9 1168)">
      <path id="Triangle" d="M100.001 0L200.002 200.002L0 200.002L100.001 0Z" />
      <path d="M98.8829 2.23608L100.001 0L101.119 2.23602L199.002 198.002L200.002 200.002L197.766 200.002L2.23608 200.002L0 200.002L1 198.002L98.8829 2.23608ZM100.001 4.47223L3.23596 198.002L196.766 198.002L100.001 4.47223Z" fill="#39FF14" fill-rule="evenodd" />
    </g>
    <g fill="#000000" fill-rule="evenodd" fill-opacity="1" transform="matrix(-0.94 0.342 -0.342 -0.94 1820 1015)">
      <path id="Triangle" d="M100.001 0L200.002 200.002L0 200.002L100.001 0Z" />
      <path d="M98.8831 2.23608L100.001 0L101.119 2.23621L199.002 198.002L200.002 200.002L197.766 200.002L2.23621 200.002L0 200.002L0.999878 198.002L98.8831 2.23608ZM100.001 4.47217L196.766 198.002L3.23608 198.002L100.001 4.47217Z" fill="#39FF14" fill-rule="evenodd" />
    </g>
    <g fill="#000000" fill-rule="evenodd" fill-opacity="1" transform="matrix(0.545 -0.839 0.839 0.545 1720.845 933)">
      <path id="Triangle" d="M100.001 0L200.001 200.002L0 200.002L100.001 0Z" />
      <path d="M98.8826 2.23608L0.999878 198.002L0 200.002L2.23584 200.002L197.765 200.002L200.001 200.002L199.001 198.002L101.119 2.23608L100.001 0L98.8826 2.23608ZM100.001 4.47205L3.23596 198.002L196.766 198.002L100.001 4.47205Z" fill="#39FF14" fill-rule="evenodd" />
    </g>
    <g fill="#000000" fill-rule="evenodd" fill-opacity="1" transform="matrix(-0.921 -0.391 0.391 -0.921 1703 872)">
      <path id="Triangle" d="M100.001 0L200.002 200.002L0 200.002L100.001 0Z" />
      <path d="M98.8828 2.23608L100.001 0L101.119 2.23608L199.002 198.002L200.002 200.002L197.766 200.002L2.23608 200.002L0 200.002L1.00012 198.002L98.8828 2.23608ZM100.001 4.47205L196.766 198.002L3.23608 198.002L100.001 4.47205Z" fill="#39FF14" fill-rule="evenodd" />
    </g>
    <g fill="#000000" fill-rule="evenodd" fill-opacity="1" transform="matrix(-0.719 -0.695 0.695 -0.719 1856 872)">
      <path id="Triangle" d="M100.001 0L200.002 200.002L0 200.002L100.001 0Z" />
      <path d="M98.8829 2.23602L100.001 0L101.119 2.23615L199.002 198.002L200.002 200.002L197.766 200.002L2.23621 200.002L0 200.002L1 198.002L98.8829 2.23602ZM100.001 4.47217L3.23608 198.002L196.766 198.002L100.001 4.47217Z" fill="#39FF14" fill-rule="evenodd" />
    </g>
    <g fill="#000000" fill-rule="evenodd" fill-opacity="1" transform="matrix(-0.914 -0.407 0.407 -0.914 1616.9 672)">
      <path id="Triangle" d="M100.001 0L200.002 200.002L0 200.002L100.001 0Z" />
      <path d="M98.8827 2.23608L100.001 0L101.119 2.23602L199.002 198.002L200.002 200.002L197.766 200.002L2.23608 200.002L0 200.002L1 198.002L98.8827 2.23608ZM100.001 4.47211L196.766 198.002L3.23608 198.002L100.001 4.47211Z" fill="#39FF14" fill-rule="evenodd" />
    </g>
    <g fill="#000000" fill-rule="evenodd" fill-opacity="1" transform="matrix(0.375 0.927 -0.927 0.375 1581.678 101)">
      <path id="Triangle" d="M100.001 0L200.002 200.002L0 200.002L100.001 0Z" />
      <path d="M98.8828 2.23608L1 198.002L0 200.002L2.23608 200.002L197.766 200.002L200.002 200.002L199.002 198.002L101.119 2.23608L100.001 0L98.8828 2.23608ZM100.001 4.47217L196.766 198.002L3.23608 198.002L100.001 4.47217Z" fill="#39FF14" fill-rule="evenodd" />
    </g>
    <g fill="#000000" fill-rule="evenodd" fill-opacity="1" transform="matrix(0.559 -0.829 0.829 0.559 1202.017 43)">
      <path id="Triangle" d="M100.001 0L200.002 200.002L0 200.002L100.001 0Z" />
      <path d="M98.8829 2.23621L1 198.002L0 200.002L2.23596 200.002L197.766 200.002L200.002 200.002L199.002 198.002L101.119 2.23608L100.001 0L98.8829 2.23621ZM100.001 4.47217L3.23608 198.002L196.766 198.002L100.001 4.47217Z" fill="#39FF14" fill-rule="evenodd" />
    </g>
    <g fill="#000000" fill-rule="evenodd" fill-opacity="1" transform="matrix(-0.53 -0.848 0.848 -0.53 1504.1 226)">
      <path id="Triangle" d="M100.001 0L200.002 200.002L0 200.002L100.001 0Z" />
      <path d="M98.8828 2.23608L100.001 0L101.119 2.23608L199.002 198.002L200.002 200.002L197.766 200.002L2.23596 200.002L0 200.002L0.999878 198.002L98.8828 2.23608ZM100.001 4.47205L3.23596 198.002L196.766 198.002L100.001 4.47205Z" fill="#39FF14" fill-rule="evenodd" />
    </g>
    <g fill="#000000" fill-rule="evenodd" fill-opacity="1" transform="matrix(-0.53 -0.848 0.848 -0.53 1703 287)">
      <path id="Triangle" d="M100.001 0L200.002 200.002L0 200.002L100.001 0Z" />
      <path d="M98.8829 2.23608L100.001 0L101.119 2.23608L199.002 198.002L200.002 200.002L197.766 200.002L2.23608 200.002L0 200.002L1 198.002L98.8829 2.23608ZM100.001 4.47205L3.23608 198.002L196.766 198.002L100.001 4.47205Z" fill="#39FF14" fill-rule="evenodd" />
    </g>
    <g fill="#000000" fill-rule="evenodd" fill-opacity="1" transform="matrix(-0.174 -0.985 0.985 -0.174 1571.203 457.818)">
      <path id="Triangle" d="M100.001 0L200.002 200.002L0 200.002L100.001 0Z" />
      <path d="M98.8829 2.23608L1 198.002L0 200.002L2.23608 200.002L197.766 200.002L200.002 200.002L199.002 198.002L101.119 2.23608L100.001 0L98.8829 2.23608ZM100.001 4.47217L3.23608 198.002L196.766 198.002L100.001 4.47217Z" fill="#39FF14" fill-rule="evenodd" />
    </g>
    <g fill="#000000" fill-rule="evenodd" fill-opacity="1" transform="matrix(0.866 0.5 -0.5 0.866 1740 402)">
      <path id="Triangle" d="M100.001 0L200.002 200.002L0 200.002L100.001 0Z" />
      <path d="M98.8827 2.23615L1.00012 198.002L0 200.002L2.23584 200.002L197.766 200.002L200.002 200.002L199.002 198.002L101.119 2.23602L100.001 0L98.8827 2.23615ZM100.001 4.47211L3.23596 198.002L196.766 198.002L100.001 4.47211Z" fill="#39FF14" fill-rule="evenodd" />
    </g>
    <g fill="#000000" fill-rule="evenodd" fill-opacity="1" transform="matrix(-0.777 0.629 -0.629 -0.777 2052.766 397)">
      <path id="Triangle" d="M100.001 0L200.002 200.002L0 200.002L100.001 0Z" />
      <path d="M98.8831 2.23621L100.001 0L101.119 2.23633L199.002 198.002L200.002 200.002L197.766 200.002L2.23608 200.002L0 200.002L1 198.002L98.8831 2.23621ZM100.001 4.47229L196.766 198.002L3.23608 198.002L100.001 4.47229Z" fill="#39FF14" fill-rule="evenodd" />
    </g>
    <g fill="#000000" fill-rule="evenodd" fill-opacity="1" transform="matrix(-0.993 0.122 -0.122 -0.993 980 70)">
      <path id="Triangle" d="M100 0L200 200L0 200L100 0Z" />
      <path d="M98.8822 2.23607L100 0L101.118 2.23607L199 198L200 200L197.764 200L2.23608 200L0 200L0.999939 198L98.8822 2.23607ZM3.23602 198L100 4.47214L196.764 198L3.23602 198Z" fill="#39FF14" fill-rule="evenodd" />
    </g>
  </g>
</svg>