<?xml version="1.0" encoding="utf-8"?>
<svg width="48.8" height="48.048" viewBox="0 0 48.8 48.048" fill="none" xmlns="http://www.w3.org/2000/svg">
  <path id="Path" d="M24.4 0C10.9251 0 0 10.9251 0 24.4C0 35.8334 7.87307 45.4003 18.4871 48.0477C18.3732 47.7183 18.3 47.336 18.3 46.8622C18.3 46.8622 18.3 42.6919 18.3 42.6919C17.3098 42.6919 15.6506 42.6919 15.2337 42.6919C13.5644 42.6919 12.08 41.9741 11.3602 40.6402C10.5611 39.1579 10.4229 36.8908 8.4424 35.504C7.85477 35.0425 8.3021 34.5158 8.9792 34.587C10.2297 34.9408 11.2667 35.7989 12.2427 37.0717C13.2146 38.3466 13.6721 38.6354 15.4879 38.6354C16.3683 38.6354 17.6859 38.5845 18.9263 38.3893C19.5932 36.6956 20.7461 35.136 22.1552 34.3999C14.03 33.5642 10.1524 29.522 10.1524 24.034C10.1524 21.6713 11.1589 19.3858 12.869 17.4602C12.3078 15.5489 11.6022 11.651 13.0845 10.1667C16.7404 10.1667 18.9507 12.5375 19.4814 13.178C21.3032 12.5538 23.304 12.2 25.4065 12.2C27.513 12.2 29.522 12.5538 31.3479 13.1821C31.8725 12.5457 34.0848 10.1667 37.7488 10.1667C39.2372 11.653 38.5235 15.5672 37.9562 17.4745C39.6561 19.396 40.6565 21.6753 40.6565 24.034C40.6565 29.5179 36.785 33.5581 28.672 34.3979C30.9046 35.563 32.5333 38.8367 32.5333 41.3031C32.5333 41.3031 32.5333 46.8622 32.5333 46.8622C32.5333 47.0737 32.4866 47.2262 32.4622 47.4072C41.97 44.0745 48.8 35.0465 48.8 24.4C48.8 10.9251 37.8749 0 24.4 0C24.4 0 24.4 0 24.4 0Z" fill="#FFFFFF" fill-rule="evenodd" transform="translate(-0 -0)" />
</svg>